<?xml version="1.0" standalone="no"?>
<!DOCTYPE svg PUBLIC "-//W3C//DTD SVG 20010904//EN"
 "http://www.w3.org/TR/2001/REC-SVG-20010904/DTD/svg10.dtd">
<svg version="1.0" xmlns="http://www.w3.org/2000/svg"
 width="787.000000pt" height="312.000000pt" viewBox="0 0 787.000000 312.000000"
 preserveAspectRatio="xMidYMid meet">

<g transform="translate(0.000000,312.000000) scale(0.100000,-0.100000)"
fill="#000000" stroke="none">
<path d="M4112 2851 c-142 -70 -161 -78 -174 -64 -14 13 -21 10 -69 -32 -30
-26 -96 -84 -148 -128 -52 -45 -124 -111 -160 -145 -36 -35 -129 -105 -206
-155 -77 -51 -196 -130 -265 -176 -158 -107 -255 -161 -291 -161 -20 0 -42
-13 -76 -48 -39 -39 -184 -136 -369 -248 -18 -10 -52 -31 -75 -46 -40 -24 -61
-28 -238 -43 -178 -15 -195 -15 -218 0 -15 10 -29 13 -36 7 -27 -21 -140 -54
-262 -76 -71 -14 -174 -36 -229 -50 -54 -14 -110 -26 -124 -26 -14 0 -97 -16
-186 -36 -89 -19 -192 -42 -231 -51 -38 -8 -125 -28 -191 -44 -147 -35 -174
-37 -174 -9 0 19 -7 20 -114 20 -120 0 -141 -7 -112 -39 14 -15 16 -64 16
-399 0 -243 -4 -383 -10 -387 -6 -3 -10 -13 -10 -21 0 -11 20 -14 100 -14 92
0 100 1 100 19 0 11 -4 23 -10 26 -11 7 -12 464 -1 504 6 21 18 9 122 -115
297 -358 304 -367 301 -407 l-2 -28 477 2 c360 2 478 0 481 -9 2 -7 8 -12 13
-12 5 0 9 47 9 104 0 115 -12 143 -45 106 -17 -19 -31 -20 -250 -20 -175 0
-236 3 -249 13 -16 12 -17 23 -11 100 4 48 11 89 15 92 17 10 181 17 244 10
55 -5 69 -11 73 -26 3 -10 11 -19 19 -19 14 0 23 29 21 70 0 14 0 55 1 92 l2
66 61 46 c75 57 93 58 110 9 6 -21 57 -146 112 -278 75 -178 101 -252 101
-285 l1 -45 70 -3 c39 -2 89 0 113 3 38 6 42 9 42 36 0 35 18 39 25 4 3 -14 7
-36 10 -50 3 -14 16 -31 30 -37 20 -9 31 -6 69 18 25 16 45 33 46 38 0 4 -27
49 -60 98 -81 123 -79 160 6 102 21 -15 58 -35 82 -45 41 -18 42 -19 42 -66 0
-26 -4 -54 -9 -62 -24 -38 -7 -41 228 -41 l227 0 45 -28 c51 -32 161 -68 234
-78 50 -6 192 -42 275 -70 25 -9 77 -22 115 -29 111 -21 177 -43 201 -66 23
-22 82 -38 142 -39 28 0 32 3 32 25 0 15 -12 35 -30 51 -44 40 -30 48 69 38
47 -5 256 -7 463 -6 359 3 377 2 395 -16 16 -17 27 -19 98 -12 44 4 99 13 123
19 25 7 111 10 212 9 186 -3 190 -2 190 55 0 15 -1 27 -2 28 -2 0 -313 3 -693
5 -379 3 -726 9 -770 14 -44 6 -163 10 -265 10 -180 0 -189 1 -274 30 -87 29
-116 44 -116 61 0 4 10 9 23 11 27 4 37 45 13 54 -13 5 -16 27 -16 134 0 71 3
135 6 144 5 13 24 16 104 16 l98 0 20 -32 c153 -252 158 -263 142 -273 -6 -4
-10 -15 -10 -26 0 -19 6 -20 216 -16 232 4 254 9 217 49 -20 22 -22 35 -25
255 -2 173 0 235 9 244 10 10 40 -44 142 -254 72 -147 134 -267 139 -267 15 0
24 16 96 175 117 257 176 375 186 375 6 0 10 -79 11 -212 2 -267 0 -299 -17
-319 -26 -29 1 -37 104 -32 106 6 123 13 104 43 -13 22 -17 220 -4 220 4 0 16
-15 25 -33 25 -46 113 -134 164 -164 64 -37 147 -56 248 -56 201 1 343 73 445
225 l40 60 0 -110 c0 -85 -3 -112 -15 -122 -8 -7 -15 -19 -15 -26 0 -11 25
-14 120 -14 103 0 122 2 127 16 4 11 -1 22 -13 31 -16 12 -19 30 -22 146 -1
72 1 137 5 144 9 13 42 17 138 14 l70 -1 66 -108 c92 -148 100 -165 92 -203
l-6 -32 481 6 c319 5 483 4 487 -3 3 -5 13 -10 21 -10 11 0 14 19 14 94 0 125
-10 147 -49 112 -13 -12 -67 -15 -266 -18 l-250 -3 0 105 0 105 157 3 c160 3
177 -1 190 -40 9 -25 28 5 28 43 0 25 5 39 13 39 7 0 53 -21 102 -48 50 -26
123 -60 163 -76 l73 -30 20 21 20 20 -29 31 c-25 26 -38 32 -74 32 -33 0 -71
15 -168 64 l-125 64 -3 41 c-3 42 -26 58 -38 26 -11 -27 -42 -26 -101 3 -32
16 -89 39 -128 50 -86 26 -115 46 -115 77 0 17 7 26 23 30 24 6 490 1 522 -6
19 -4 20 2 23 79 3 88 2 87 61 76 23 -5 44 -22 77 -65 43 -56 47 -59 90 -59
25 0 59 7 75 16 28 14 32 14 50 -2 30 -27 43 -6 24 39 -8 20 -15 51 -15 68 0
18 -19 70 -44 118 -71 138 -92 196 -150 412 -31 114 -71 235 -91 275 -44 89
-103 157 -156 178 -26 11 -87 59 -158 127 -139 131 -162 141 -259 116 -36 -10
-80 -28 -98 -42 -18 -14 -54 -32 -81 -41 -84 -28 -95 -49 -30 -59 71 -11 106
-25 127 -52 25 -32 25 -75 3 -159 l-17 -65 28 -107 c42 -156 41 -146 11 -160
-27 -12 -65 -16 -65 -6 0 3 5 14 10 25 17 30 -8 24 -65 -17 -44 -31 -55 -35
-93 -30 -40 5 -43 4 -60 -30 -23 -48 -88 -94 -143 -101 -27 -4 -52 -15 -65
-28 -22 -24 -135 -55 -199 -55 -20 0 -46 -5 -58 -12 -46 -24 -194 -58 -257
-58 -51 0 -73 -5 -99 -23 -19 -12 -42 -26 -50 -32 -9 -5 -36 -24 -61 -41 -53
-37 -124 -74 -141 -74 -7 0 -27 -12 -46 -26 -25 -19 -64 -32 -136 -46 -56 -11
-124 -31 -152 -43 -58 -27 -137 -38 -194 -29 -37 6 -41 9 -41 35 l0 29 -114 0
c-81 0 -124 5 -151 16 -28 11 -54 14 -94 9 -143 -16 -466 25 -781 99 -80 19
-230 48 -335 64 -220 35 -245 43 -245 84 0 21 -5 28 -20 28 -10 0 -24 -8 -29
-19 -15 -28 -85 -42 -190 -39 l-94 3 119 33 c65 18 142 39 169 47 28 8 97 26
155 40 58 14 157 39 220 55 63 16 144 34 180 40 36 6 88 18 115 27 47 14 270
122 360 173 94 54 129 70 150 70 25 0 55 29 55 53 0 8 15 26 33 38 17 13 61
48 97 78 64 53 129 90 161 91 67 1 303 115 415 201 34 26 91 53 175 83 69 24
141 53 160 63 45 26 139 61 197 74 25 5 52 14 58 20 16 13 5 49 -15 49 -36 0
-232 -73 -336 -126 -61 -30 -132 -59 -160 -63 -36 -5 -75 -24 -138 -65 -71
-47 -243 -136 -262 -136 -3 0 -5 9 -5 20 0 29 -33 25 -82 -10 -22 -16 -50 -30
-62 -30 -20 0 -170 -113 -251 -190 -77 -73 -250 -175 -463 -274 -73 -34 -123
-51 -170 -56 -37 -5 -94 -18 -127 -29 -33 -12 -125 -35 -205 -51 -80 -17 -206
-48 -280 -71 -176 -54 -225 -68 -283 -79 -45 -9 -50 -8 -92 24 -41 31 -43 35
-27 49 27 24 136 97 146 97 13 0 257 150 301 185 22 18 60 44 85 59 25 14 72
46 105 71 33 24 99 72 148 106 48 34 143 112 210 173 67 61 146 132 175 158
32 28 106 74 185 113 72 37 137 71 144 77 7 5 45 23 85 38 81 32 98 50 45 50
-23 0 -88 -26 -195 -79z m2793 -1017 c33 -46 72 -101 87 -121 30 -43 43 -82
31 -94 -5 -5 -43 0 -86 11 -42 11 -177 35 -299 55 -275 44 -279 45 -273 55 3
5 31 20 62 34 30 15 73 41 93 60 59 53 117 66 183 41 11 -5 17 -2 17 7 0 21
37 37 85 37 39 0 42 -3 100 -85z m-4286 -140 c8 -8 -4 -11 -56 -17 -57 -7 -70
5 -25 22 24 9 70 6 81 -5z m4580 -50 c68 -30 79 -46 49 -73 -19 -18 -23 -19
-49 -6 -15 8 -34 15 -41 15 -7 0 -26 7 -42 15 -15 8 -32 12 -37 9 -5 -3 -9 -2
-9 2 0 10 52 64 61 64 4 0 35 -12 68 -26z m-611 -23 c54 -11 124 -22 157 -26
84 -9 187 -35 204 -51 13 -12 12 -16 -4 -34 l-19 -21 54 3 c45 2 55 6 54 21
-1 11 5 17 20 17 31 0 96 -20 96 -29 0 -5 19 -11 41 -14 38 -5 69 -21 58 -30
-2 -2 -155 -9 -339 -16 -198 -6 -338 -15 -344 -21 -7 -7 -7 -17 2 -30 13 -21
17 -100 5 -100 -5 0 -27 22 -50 48 -33 40 -53 53 -107 70 -63 21 -76 21 -362
15 -313 -7 -328 -9 -290 -52 9 -10 16 -25 16 -35 0 -14 -5 -16 -22 -9 -13 4
-43 7 -67 6 -34 -2 -60 6 -113 34 -37 19 -68 39 -68 43 0 4 27 19 60 34 33 15
68 36 78 46 34 37 116 68 207 80 50 7 113 21 140 33 90 38 439 48 593 18z
m-3383 -105 c256 -37 385 -61 533 -96 201 -49 202 -49 201 -170 -1 -58 -3 -75
-8 -55 -19 75 -58 121 -136 157 -48 22 -64 23 -339 28 -219 4 -290 8 -294 18
-5 17 -29 15 -39 -3 -7 -12 -75 -15 -432 -21 -360 -6 -424 -9 -429 -22 -3 -8
3 -21 13 -28 17 -13 17 -15 -3 -66 -36 -93 -131 -320 -135 -324 -12 -12 -82
33 -139 88 -55 54 -70 75 -96 145 -18 45 -32 88 -32 95 1 13 184 131 314 202
l71 38 267 7 c147 4 271 11 275 14 11 12 314 7 408 -7z m-1289 -58 c9 -15 -39
-53 -94 -75 -42 -16 -46 -16 -78 2 -32 17 -35 17 -52 2 -14 -13 -38 -17 -103
-17 -129 0 -128 14 3 39 62 12 149 30 193 40 96 23 122 25 131 9z m2404 -148
c25 -5 89 -12 143 -15 130 -8 129 -8 110 -53 -34 -82 -161 -339 -170 -345 -13
-8 -197 352 -207 401 l-6 34 43 -7 c23 -3 62 -10 87 -15z m-3301 -228 c-1
-179 -6 -224 -24 -223 -12 1 -14 366 -3 394 20 48 28 -4 27 -171z m2684 123
c81 -38 73 -154 -13 -189 -42 -17 -252 -23 -319 -10 l-31 7 0 103 0 103 43 4
c105 9 285 -1 320 -18z m-2893 -190 c0 -113 -3 -205 -8 -205 -16 0 -282 317
-282 336 0 10 45 25 190 63 19 5 50 10 68 10 l32 1 0 -205z m2324 184 l27 -21
-3 -233 c-3 -212 -5 -235 -22 -254 -18 -20 -29 -21 -209 -21 -183 0 -192 1
-248 26 -65 30 -75 50 -64 128 6 40 10 44 38 49 18 2 85 2 150 0 100 -4 122
-8 138 -24 40 -40 49 -21 49 99 0 48 -3 97 -6 110 -8 27 -30 29 -44 2 -10 -19
-21 -20 -165 -20 -98 0 -156 4 -160 11 -4 5 -4 46 0 90 l7 79 243 0 c232 0
243 -1 269 -21z m-1577 3 c16 -10 -68 -70 -177 -129 -80 -43 -127 -57 -166
-47 -23 6 -24 10 -24 79 0 40 3 80 6 89 5 14 30 16 178 16 94 0 177 -4 183 -8z
m3927 -6 c63 -16 105 -59 135 -136 19 -51 22 -71 16 -118 -9 -75 -38 -133 -87
-178 -64 -58 -119 -78 -218 -78 -74 -1 -93 3 -142 27 -110 54 -176 164 -165
273 7 71 51 150 105 191 l44 33 131 0 c74 -1 153 -7 181 -14z m843 -2 c63 -6
79 -22 67 -66 -13 -43 -48 -67 -119 -78 -68 -11 -216 -13 -264 -4 l-31 7 0 77
0 77 148 -4 c81 -2 170 -6 199 -9z m-3896 -209 c0 -103 -2 -189 -4 -191 -8 -8
-92 33 -110 54 -18 20 -18 23 27 141 51 133 78 193 84 187 2 -2 3 -88 3 -191z
m4439 130 c35 -14 35 -14 -29 -12 -41 1 -66 7 -69 15 -5 16 52 15 98 -3z
m-280 -265 c0 -132 -3 -240 -7 -240 -13 1 -193 282 -193 301 0 5 26 22 59 38
62 32 107 77 117 117 17 67 24 3 24 -216z m-2642 -80 c0 -91 -3 -176 -7 -190
-7 -24 -9 -22 -42 30 -64 100 -137 225 -143 246 -5 17 2 24 45 44 60 29 114
85 125 131 8 32 9 29 15 -31 4 -36 7 -139 7 -230z m-2943 -60 c3 -5 1 -10 -4
-10 -6 0 -11 5 -11 10 0 6 2 10 4 10 3 0 8 -4 11 -10z m11 -97 c-8 -84 -9 -88
-25 -78 -12 7 -15 113 -5 139 3 9 13 16 21 16 13 0 15 -12 9 -77z"/>
</g>
</svg>
